<?xml version="1.0" encoding="UTF-8"?>
<svg width="150px" height="150px" viewBox="0 0 150 150" version="1.1" xmlns="http://www.w3.org/2000/svg" xmlns:xlink="http://www.w3.org/1999/xlink">
    <!-- Generator: Sketch 54.1 (76490) - https://sketchapp.com -->
    <title>Logo</title>
    <desc>Created with Sketch.</desc>
    <defs>
        <polygon id="path-1" points="0.0692307692 0.461538462 149.933077 0.461538462 149.933077 150 0.0692307692 150"></polygon>
    </defs>
    <g id="Symbols" stroke="none" stroke-width="1" fill="none" fill-rule="evenodd">
        <g id="Header">
            <g id="Logo">
                <g>
                    <g>
                        <g id="Group-3">
                            <mask id="mask-2" fill="white">
                                <use xlink:href="#path-1"></use>
                            </mask>
                            <g id="Clip-2"></g>
                            <polygon id="Fill-1" fill="#0A0B09" mask="url(#mask-2)" points="0.0692307692 150 149.933077 150 149.933077 0.461538462 0.0692307692 0.461538462"></polygon>
                        </g>
                        <path d="M27.9611538,128.036538 L26.7473077,125.438077 L25.5842308,128.036538 L27.9611538,128.036538 Z M24.7292308,130.258846 C24.525,130.736538 24.3023077,131.318077 24.1315385,131.728846 C24.0796154,131.865 24.0461538,131.916923 23.8234615,131.916923 C22.695,131.916923 22.1146154,131.916923 20.9861538,131.916923 C20.8488462,131.916923 20.8315385,131.848846 20.8996154,131.676923 C22.6776923,127.899231 25.1573077,122.855769 26.7126923,119.949231 C26.73,119.898462 27.1061538,119.915769 27.1223077,119.949231 C28.7642308,123.146538 31.0892308,127.899231 32.97,131.676923 C33.0726923,131.899615 33.0553846,131.916923 32.9019231,131.916923 C32.0803846,131.916923 31.0211538,131.916923 29.7046154,131.916923 C29.6192308,131.916923 29.55,131.899615 29.4992308,131.779615 C29.2938462,131.318077 29.0376923,130.685769 28.8669231,130.258846 L24.7292308,130.258846 L24.7292308,130.258846 Z" id="Fill-4" fill="#AC2B2D"></path>
                        <path d="M46.2323077,127.745769 L48.7973077,128.446154 C48.9680769,128.480769 48.9853846,128.566154 48.9507692,128.668846 C48.1811538,130.532308 46.2669231,132.207692 43.6003846,132.207692 C39.9588462,132.207692 37.5311538,129.454615 37.5311538,126.171923 C37.5311538,122.667692 40.1642308,120.086538 43.515,120.086538 C46.335,120.086538 48.0623077,121.608462 48.8307692,123.351923 C48.9173077,123.557308 48.8480769,123.625385 48.78,123.66 L46.2323077,124.651154 C46.1307692,124.685769 46.1123077,124.651154 46.0788462,124.565769 C45.5826923,123.54 44.7623077,123.010385 43.5830769,123.010385 C41.8730769,123.010385 40.7792308,124.360385 40.7792308,126.190385 C40.7792308,128.326154 42.1984615,129.301154 43.6338462,129.301154 C44.7969231,129.301154 45.6173077,128.736923 46.0280769,127.865769 C46.0788462,127.779231 46.0961538,127.711154 46.2323077,127.745769" id="Fill-5" fill="#AC2B2D"></path>
                        <path d="M60.4730769,128.036538 L59.2592308,125.438077 L58.0961538,128.036538 L60.4730769,128.036538 Z M57.2411538,130.258846 C57.0369231,130.736538 56.8142308,131.318077 56.6434615,131.728846 C56.5926923,131.865 56.5580769,131.916923 56.3353846,131.916923 C55.2069231,131.916923 54.6265385,131.916923 53.4980769,131.916923 C53.3607692,131.916923 53.3434615,131.848846 53.4126923,131.676923 C55.1907692,127.899231 57.6692308,122.855769 59.2246154,119.949231 C59.2419231,119.898462 59.6180769,119.915769 59.6353846,119.949231 C61.2761538,123.146538 63.6011538,127.899231 65.4819231,131.676923 C65.5846154,131.899615 65.5673077,131.916923 65.4138462,131.916923 C64.5923077,131.916923 63.5330769,131.916923 62.2165385,131.916923 C62.1311538,131.916923 62.0630769,131.899615 62.0111538,131.779615 C61.8069231,131.318077 61.5496154,130.685769 61.3788462,130.258846 L57.2411538,130.258846 L57.2411538,130.258846 Z" id="Fill-6" fill="#AC2B2D"></path>
                        <path d="M74.2846154,129.454615 L75.8573077,129.454615 C77.5673077,129.454615 78.2169231,128.07 78.2169231,126.069231 C78.2169231,124.206923 77.3792308,122.754231 75.8919231,122.754231 L74.2846154,122.754231 L74.2846154,129.454615 Z M71.4126923,131.916923 C71.2926923,131.916923 71.2753846,131.933077 71.2753846,131.763462 C71.2753846,129.574615 71.2753846,127.831154 71.2753846,126.069231 C71.2753846,124.360385 71.2753846,122.633077 71.2753846,120.496154 C71.2753846,120.36 71.2926923,120.325385 71.4126923,120.325385 L76.1653846,120.325385 C79.4480769,120.325385 81.4142308,122.360769 81.4142308,126.121154 C81.4142308,129.830769 79.1573077,131.916923 75.7719231,131.916923 L71.4126923,131.916923 L71.4126923,131.916923 Z" id="Fill-7" fill="#AC2B2D"></path>
                        <path d="M88.0280769,131.916923 C87.8573077,131.916923 87.84,131.882308 87.84,131.676923 C87.84,128.686154 87.84,123.778846 87.84,120.496154 C87.84,120.342692 87.8226923,120.325385 87.9934615,120.325385 L95.7207692,120.325385 C95.8915385,120.325385 95.9088462,120.342692 95.9088462,120.548077 C95.9088462,121.403077 95.9088462,121.899231 95.9088462,122.633077 C95.9088462,122.787692 95.8580769,122.873077 95.7207692,122.873077 L90.8319231,122.822308 L90.8319231,124.753846 L95.6180769,124.753846 C95.7726923,124.753846 95.79,124.788462 95.79,124.992692 C95.79,125.830385 95.79,126.394615 95.79,127.078846 C95.79,127.284231 95.7726923,127.317692 95.6180769,127.317692 L90.8319231,127.317692 L90.8319231,129.301154 L95.8407692,129.249231 C96.0288462,129.249231 96.0288462,129.249231 96.0288462,129.471923 C96.0288462,130.326923 96.0288462,130.976538 96.0288462,131.676923 C96.0288462,131.882308 96.0115385,131.916923 95.8407692,131.916923 L88.0280769,131.916923" id="Fill-8" fill="#AC2B2D"></path>
                        <path d="M113.875385,131.694231 C113.875385,131.831538 113.927308,131.933077 113.755385,131.933077 C112.764231,131.933077 112.046538,131.933077 110.968846,131.933077 C110.85,131.933077 110.832692,131.882308 110.832692,131.796923 L110.73,126.822692 C110.73,126.822692 108.763846,128.874231 108.131538,129.489231 C108.011538,129.591923 107.995385,129.609231 107.875385,129.489231 C107.208462,128.805 105.225,126.805385 105.225,126.805385 L105.105,131.676923 C105.105,131.899615 105.088846,131.916923 104.918077,131.916923 C103.840385,131.916923 103.361538,131.916923 102.353077,131.916923 C102.199615,131.916923 102.199615,131.967692 102.199615,131.814231 C102.234231,128.155385 102.387692,123.728077 102.541154,120.309231 C102.558462,120.103846 102.678462,120.086538 102.781154,120.189231 C104.268462,121.659231 107.225769,124.633846 107.995385,125.506154 C108.713077,124.651154 111.567692,121.659231 113.175,120.103846 C113.260385,120.018462 113.396538,120.018462 113.415,120.189231 C113.653846,124.651154 113.755385,127.575 113.875385,131.694231" id="Fill-9" fill="#AC2B2D"></path>
                        <path d="M126.475385,128.224615 L126.475385,131.694231 C126.475385,131.916923 126.475385,131.933077 126.287308,131.933077 C125.261538,131.933077 124.458462,131.933077 123.448846,131.933077 C123.346154,131.933077 123.33,131.916923 123.33,131.694231 L123.33,128.308846 C123.33,128.308846 120.867692,123.881538 119.209615,120.548077 C119.089615,120.325385 119.106923,120.325385 119.312308,120.325385 L122.201538,120.325385 C122.475,120.325385 122.543077,120.393462 122.645769,120.598846 C123.346154,122.018077 124.902692,125.556923 124.902692,125.556923 C124.902692,125.556923 126.491538,122.052692 127.039615,120.633462 C127.142308,120.377308 127.193077,120.325385 127.398462,120.325385 L129.911538,120.325385 C130.270385,120.325385 130.321154,120.377308 130.150385,120.753462 C128.646923,124.086923 126.475385,128.224615 126.475385,128.224615" id="Fill-10" fill="#AC2B2D"></path>
                        <path d="M41.175,112.128462 C41.175,112.355769 41.2603846,112.527692 40.9753846,112.527692 C39.3230769,112.527692 38.1276923,112.527692 36.3323077,112.527692 C36.1326923,112.527692 36.105,112.441154 36.105,112.299231 L35.9330769,104.008846 C35.9330769,104.008846 32.6573077,107.427692 31.6038462,108.453462 C31.4042308,108.624231 31.3753846,108.653077 31.1757692,108.453462 C30.0646154,107.314615 26.7611538,103.981154 26.7611538,103.981154 L26.5615385,112.099615 C26.5615385,112.47 26.5326923,112.498846 26.2476923,112.498846 C24.4534615,112.498846 23.655,112.498846 21.975,112.498846 C21.7188462,112.498846 21.7188462,112.584231 21.7188462,112.328077 C21.7753846,106.231154 22.0315385,98.8534615 22.2888462,93.1557692 C22.3165385,92.8142308 22.5161538,92.7853846 22.6869231,92.9561538 C25.1653846,95.4057692 30.0934615,100.362692 31.3753846,101.815385 C32.5719231,100.391538 37.3292308,95.4057692 40.0073077,92.8142308 C40.1503846,92.6711538 40.3776923,92.6711538 40.4065385,92.9561538 C40.8046154,100.391538 40.9753846,105.263077 41.175,112.128462" id="Fill-11" fill="#FFFFFE"></path>
                        <path d="M59.5246154,106.031538 L57.5007692,101.702308 L55.5646154,106.031538 L59.5246154,106.031538 Z M54.1407692,109.735385 C53.7980769,110.532692 53.4276923,111.500769 53.1426923,112.185 C53.0573077,112.412308 53.0007692,112.498846 52.6303846,112.498846 C50.7507692,112.498846 49.7815385,112.498846 47.9019231,112.498846 C47.6734615,112.498846 47.6457692,112.384615 47.7588462,112.099615 C50.7219231,105.804231 54.8526923,97.4007692 57.4442308,92.5569231 C57.4730769,92.4726923 58.0996154,92.5003846 58.1284615,92.5569231 C60.8630769,97.8842308 64.7365385,105.804231 67.8703846,112.099615 C68.0411538,112.47 68.0134615,112.498846 67.7573077,112.498846 C66.39,112.498846 64.6234615,112.498846 62.43,112.498846 C62.2869231,112.498846 62.1726923,112.47 62.0884615,112.270385 C61.7457692,111.500769 61.3188462,110.447308 61.0338462,109.735385 L54.1407692,109.735385 L54.1407692,109.735385 Z" id="Fill-12" fill="#FFFFFE"></path>
                        <path d="M82.83,102.926538 C84.3680769,102.87 85.2219231,101.73 85.2219231,100.078846 C85.2219231,98.5684615 84.4534615,97.4284615 82.8011538,97.4284615 L79.98,97.4284615 L79.98,103.013077 L82.83,102.926538 Z M83.9123077,93.1846154 C88.2992308,93.1846154 90.6346154,96.2042308 90.6346154,99.7073077 C90.6346154,102.328846 89.7230769,104.180769 87.9865385,105.006923 C88.7261538,106.174615 90.3496154,109.052308 92.0019231,111.729231 C92.3446154,112.299231 92.2592308,112.498846 91.9453846,112.498846 L86.9030769,112.498846 C86.6757692,112.498846 86.5615385,112.441154 86.3042308,111.928846 C85.3361538,110.076923 83.2569231,106.801154 83.2569231,106.801154 L79.98,106.858846 C79.98,106.858846 79.98,110.020385 79.98,112.242692 C79.98,112.47 79.9523077,112.498846 79.7526923,112.498846 C77.9296154,112.498846 76.7896154,112.498846 75.0807692,112.498846 C74.8534615,112.498846 74.8534615,112.527692 74.8534615,112.242692 C74.8534615,108.709615 74.8534615,105.804231 74.8534615,102.87 C74.8534615,99.7073077 74.8534615,96.9726923 74.8534615,93.4407692 C74.8534615,93.1557692 74.9953846,93.1846154 75.0807692,93.1846154 L83.9123077,93.1846154 L83.9123077,93.1846154 Z" id="Fill-13" fill="#FFFFFE"></path>
                        <path d="M104.681538,102.87 C104.681538,106.516154 104.681538,110.020385 104.681538,112.242692 C104.681538,112.47 104.653846,112.498846 104.397692,112.498846 C102.516923,112.498846 101.463462,112.498846 99.6680769,112.498846 C99.4119231,112.498846 99.4119231,112.527692 99.4119231,112.242692 C99.4119231,108.709615 99.4119231,105.804231 99.4119231,102.87 C99.4119231,99.7073077 99.4119231,96.9726923 99.4119231,93.4407692 C99.4119231,93.1557692 99.4119231,93.1846154 99.6680769,93.1846154 C101.463462,93.1846154 102.516923,93.1846154 104.397692,93.1846154 C104.653846,93.1846154 104.681538,93.2123077 104.681538,93.4407692 C104.681538,95.6630769 104.681538,99.195 104.681538,102.87" id="Fill-14" fill="#FFFFFE"></path>
                        <path d="M113.800385,92.8996154 C113.800385,92.5857692 113.97,92.6146154 114.113077,92.7 C118.186154,95.6053846 125.165769,102.072692 125.165769,102.072692 L125.165769,93.5261538 C125.165769,93.2123077 125.165769,93.1846154 125.394231,93.1846154 C127.103077,93.1846154 127.929231,93.1846154 129.723462,93.1846154 C130.008462,93.1846154 130.008462,93.2411538 130.008462,93.5261538 C130.122692,99.0807692 130.095,106.715769 130.008462,112.640769 C130.008462,112.983462 129.979615,113.154231 129.666923,112.925769 C125.365385,109.706538 118.641923,103.525385 118.641923,103.525385 L118.641923,112.242692 C118.641923,112.498846 118.641923,112.498846 118.385769,112.498846 C116.591538,112.498846 115.794231,112.498846 114.084231,112.498846 C113.884615,112.498846 113.800385,112.328077 113.800385,112.213846 C113.657308,104.949231 113.686154,100.420385 113.800385,92.8996154" id="Fill-15" fill="#FFFFFE"></path>
                        <polyline id="Fill-16" fill="#AC2B2D" points="49.8819231 47.1034615 37.3396154 74.6965385 62.4242308 74.6965385 49.8819231 47.1034615"></polyline>
                        <polyline id="Fill-17" fill="#FFFFFE" points="74.9665385 47.1034615 62.4242308 74.6965385 87.5088462 74.6965385 74.9665385 47.1034615"></polyline>
                        <polyline id="Fill-18" fill="#23B4CB" points="100.051154 47.1034615 87.5088462 74.6965385 112.593462 74.6965385 100.051154 47.1034615"></polyline>
                        <polyline id="Fill-19" fill="#D96F2C" points="62.4242308 74.6965385 49.8819231 47.1034615 74.9665385 47.1034615 62.4242308 74.6965385"></polyline>
                        <polyline id="Fill-20" fill="#ACB638" points="87.5088462 74.6965385 74.9665385 47.1034615 100.051154 47.1034615 87.5088462 74.6965385"></polyline>
                        <polyline id="Fill-21" fill="#23B4CB" points="62.4242308 19.5092308 49.8819231 47.1034615 74.9665385 47.1034615 62.4242308 19.5092308"></polyline>
                        <polyline id="Fill-22" fill="#AC2B2D" points="87.5088462 19.5092308 74.9665385 47.1034615 100.051154 47.1034615 87.5088462 19.5092308"></polyline>
                    </g>
                </g>
            </g>
        </g>
    </g>
</svg>